<?xml version="1.0" standalone="no"?>
<!DOCTYPE svg PUBLIC "-//W3C//DTD SVG 20010904//EN"
 "http://www.w3.org/TR/2001/REC-SVG-20010904/DTD/svg10.dtd">
<svg version="1.0" xmlns="http://www.w3.org/2000/svg"
 width="4501.000000pt" height="4501.000000pt" viewBox="0 0 4501.000000 4501.000000"
 preserveAspectRatio="xMidYMid meet">
<metadata>
Created by potrace 1.14, written by Peter Selinger 2001-2017
</metadata>
<g transform="translate(0.000000,4501.000000) scale(0.100000,-0.100000)"
fill="#000000" stroke="none">
<path d="M2980 25840 l0 -260 1445 0 1445 0 0 260 0 260 -1445 0 -1445 0 0
-260z"/>
<path d="M6870 25840 l0 -260 1505 0 1505 0 0 260 0 260 -1505 0 -1505 0 0
-260z"/>
<path d="M19830 25840 l0 -260 2140 0 2140 0 0 260 0 260 -2140 0 -2140 0 0
-260z"/>
<path d="M24980 25840 l0 -260 3150 0 3150 0 0 260 0 260 -3150 0 -3150 0 0
-260z"/>
<path d="M10340 25830 l0 -250 1604 0 1605 0 -122 250 -121 250 -1483 0 -1483
0 0 -250z"/>
<path d="M16221 26063 c-25 -49 -211 -472 -211 -482 0 -8 426 -11 1610 -11
l1610 0 0 255 0 255 -1500 0 c-1418 0 -1500 -1 -1509 -17z"/>
<path d="M2980 24865 l0 -255 1445 0 1445 0 0 255 0 255 -1445 0 -1445 0 0
-255z"/>
<path d="M6870 24865 l0 -255 1505 0 1505 0 0 255 0 255 -1505 0 -1505 0 0
-255z"/>
<path d="M10340 24865 l0 -255 1836 0 c1009 0 1833 3 1831 8 -2 4 -57 118
-122 255 l-118 247 -1714 0 -1713 0 0 -255z"/>
<path d="M19830 24865 l0 -255 2140 0 2140 0 0 255 0 255 -2140 0 -2140 0 0
-255z"/>
<path d="M24980 24865 l0 -255 3150 0 3150 0 0 255 0 255 -3150 0 -3150 0 0
-255z"/>
<path d="M15703 24933 c-45 -98 -97 -213 -117 -255 l-35 -78 1839 0 1840 0 0
255 0 255 -1723 0 -1723 0 -81 -177z"/>
<path d="M3950 23935 l0 -225 960 0 960 0 0 225 0 225 -960 0 -960 0 0 -225z"/>
<path d="M6870 23935 l0 -225 975 0 975 0 0 225 0 225 -975 0 -975 0 0 -225z"/>
<path d="M11320 23935 l0 -225 1565 0 c861 0 1565 3 1565 6 0 3 -48 105 -107
225 l-106 219 -1459 0 -1458 0 0 -225z"/>
<path d="M20990 23935 l0 -225 975 0 975 0 0 225 0 225 -975 0 -975 0 0 -225z"/>
<path d="M25940 23935 l0 -225 955 0 955 0 0 225 0 225 -955 0 -955 0 0 -225z"/>
<path d="M29650 23935 l0 -225 815 0 815 0 0 225 0 225 -815 0 -815 0 0 -225z"/>
<path d="M15247 23940 c-54 -116 -100 -217 -104 -225 -4 -13 187 -15 1556 -15
l1561 0 0 225 0 225 -1458 0 -1458 0 -97 -210z"/>
<path d="M3950 23045 l0 -225 2435 0 2435 0 0 225 0 225 -2435 0 -2435 0 0
-225z"/>
<path d="M11320 23045 l0 -225 885 0 884 0 3 152 3 152 60 -152 60 -152 1551
0 1551 0 54 137 54 138 3 -138 3 -137 914 0 915 0 0 225 0 225 -1661 -2 -1661
-3 -66 -146 -66 -147 -73 149 -72 149 -1670 0 -1671 0 0 -225z"/>
<path d="M20990 23045 l0 -225 975 0 975 0 0 225 0 225 -975 0 -975 0 0 -225z"/>
<path d="M25940 23045 l0 -225 1670 0 1670 0 0 225 0 225 -1670 0 -1670 0 0
-225z"/>
<path d="M31415 22995 l0 -145 1714 2 1714 3 0 125 c-1 69 -2 133 -2 143 -1
16 -90 17 -1714 17 l-1712 0 0 -145z"/>
<path d="M36150 23125 c-182 -36 -305 -100 -451 -234 l-44 -40 1278 -1 1277 0
1 35 c0 19 0 76 0 125 0 50 0 99 0 110 -1 20 -6 20 -998 19 -773 -1 -1013 -4
-1063 -14z"/>
<path d="M39670 23133 c-185 -30 -346 -107 -475 -227 l-59 -56 1277 0 c1015 0
1277 3 1278 13 1 15 0 224 0 255 l-1 22 -997 -1 c-549 -1 -1009 -4 -1023 -6z"/>
<path d="M31419 22571 c-4 -21 -4 -273 1 -279 6 -9 3419 -10 3421 -2 1 7 1
251 0 271 -1 15 -142 16 -1711 16 -940 0 -1711 -2 -1711 -6z"/>
<path d="M35461 22541 c-27 -53 -71 -180 -77 -221 l-5 -35 1415 0 1416 0 1 40
c1 41 0 194 -1 231 l0 22 -1365 0 -1366 0 -18 -37z"/>
<path d="M38941 22541 c-27 -53 -81 -209 -81 -234 l0 -22 1415 0 c1253 0 1415
2 1416 15 0 16 0 235 -1 261 0 15 -111 17 -1365 16 l-1366 0 -18 -36z"/>
<path d="M3950 22195 l0 -235 2435 0 2435 0 0 235 0 235 -2435 0 -2435 0 0
-235z"/>
<path d="M11320 22195 l0 -235 885 0 885 0 0 235 0 235 -885 0 -885 0 0 -235z"/>
<path d="M13383 22410 c3 -12 45 -117 93 -235 l89 -215 1205 0 1206 0 79 203
c43 111 85 217 92 235 l13 32 -1391 0 -1391 0 5 -20z"/>
<path d="M20990 22195 l0 -235 975 0 975 0 0 235 0 235 -975 0 -975 0 0 -235z"/>
<path d="M25940 22195 l0 -235 1670 0 1670 0 0 235 0 235 -1670 0 -1670 0 0
-235z"/>
<path d="M16430 22185 l0 -235 915 0 915 0 0 235 0 235 -915 0 -915 0 0 -235z"/>
<path d="M31978 22007 c-2 -7 -4 -64 -4 -127 l1 -115 548 0 c479 0 548 2 551
15 3 8 4 65 3 125 l-2 110 -547 2 c-406 1 -548 -2 -550 -10z"/>
<path d="M33905 22006 c-2 -6 -3 -63 -2 -126 l2 -115 460 -1 c253 0 465 3 470
7 8 6 12 188 6 241 -1 3 -211 6 -467 6 -340 0 -466 -3 -469 -12z"/>
<path d="M35339 22012 c-4 -25 -3 -193 1 -217 l6 -30 592 0 592 0 0 126 0 127
-595 0 c-327 0 -596 -3 -596 -6z"/>
<path d="M37332 21891 l0 -126 440 0 441 0 -1 103 c0 56 -1 113 -1 126 l-1 25
-439 -1 -439 -1 0 -126z"/>
<path d="M38819 21987 c-3 -66 -1 -173 3 -197 l5 -25 591 0 592 0 0 126 0 127
-595 0 -595 0 -1 -31z"/>
<path d="M40813 21891 l2 -126 438 0 c383 0 437 2 438 15 1 21 1 103 0 177
l-1 61 -439 0 -440 0 2 -127z"/>
<path d="M3950 21240 l0 -290 960 0 960 0 0 290 0 290 -960 0 -960 0 0 -290z"/>
<path d="M6870 21240 l0 -290 975 0 975 0 0 290 0 290 -975 0 -975 0 0 -290z"/>
<path d="M11320 21240 l0 -290 885 0 885 0 0 290 0 290 -885 0 -885 0 0 -290z"/>
<path d="M13750 21518 c1 -7 52 -137 114 -288 l113 -275 798 0 799 0 113 275
c62 151 113 280 113 287 0 10 -203 13 -1025 13 -814 0 -1025 -3 -1025 -12z"/>
<path d="M20990 21240 l0 -290 975 0 975 0 0 290 0 290 -975 0 -975 0 0 -290z"/>
<path d="M25940 21240 l0 -290 955 0 955 0 0 290 0 290 -955 0 -955 0 0 -290z"/>
<path d="M16430 21230 l0 -290 915 0 915 0 0 290 0 290 -915 0 -915 0 0 -290z"/>
<path d="M31979 21505 c-1 0 -2 -57 -3 -127 l-1 -128 25 -1 c14 0 450 -1 970
-2 l945 0 0 126 c0 79 -3 127 -10 128 -7 1 -1871 5 -1926 4z"/>
<path d="M35395 21501 c-12 -11 89 -251 107 -252 17 -1 2490 -1 2502 0 15 2
-54 59 -147 121 -92 62 -190 112 -248 126 -32 7 -2207 13 -2214 5z"/>
<path d="M38879 21499 c-11 -6 76 -229 95 -244 8 -7 440 -9 1257 -8 684 1
1247 2 1252 2 4 1 -12 18 -35 39 -24 20 -45 39 -48 42 -34 36 -251 153 -310
166 -39 9 -2197 12 -2211 3z"/>
<path d="M31979 21012 c-1 -4 -2 -64 -3 -134 l-1 -128 25 -1 c14 0 450 -1 970
-1 l945 -1 1 124 c0 68 -2 129 -4 135 -4 13 -1931 18 -1933 6z"/>
<path d="M35657 21014 c-12 -13 138 -138 230 -193 133 -79 30 -73 1258 -73
605 0 1110 1 1123 1 23 1 28 19 13 49 -5 9 -24 53 -41 98 -17 45 -38 90 -46
102 l-14 20 -1259 0 c-693 0 -1261 -2 -1264 -4z"/>
<path d="M39140 21009 c0 -23 159 -151 250 -201 36 -20 83 -41 105 -48 30 -10
286 -13 1152 -13 612 0 1116 3 1120 6 7 7 -26 100 -69 199 l-30 67 -1264 -1
c-695 0 -1264 -4 -1264 -9z"/>
<path d="M31987 20488 c-9 -5 -12 -51 -12 -165 l0 -158 550 0 550 0 1 158 c1
103 -2 159 -9 164 -14 9 -1065 10 -1080 1z"/>
<path d="M33918 20492 c-14 -3 -16 -23 -16 -150 0 -81 2 -154 4 -162 3 -13 65
-15 496 -14 271 1 495 2 498 3 3 0 5 73 5 161 0 136 -2 160 -15 161 -48 2
-959 3 -972 1z"/>
<path d="M35360 20490 c-4 -3 -7 -77 -8 -165 l-1 -160 502 0 502 0 0 158 c0
90 -4 161 -9 165 -12 7 -975 9 -986 2z"/>
<path d="M37167 20488 c-14 -8 -16 -316 -2 -321 6 -2 276 -3 600 -3 l590 1 1
125 c1 69 -1 143 -3 165 l-5 40 -585 0 c-322 0 -590 -3 -596 -7z"/>
<path d="M38840 20485 c-5 -6 -8 -80 -7 -165 l2 -155 500 0 500 0 0 158 c0 91
-4 161 -9 164 -17 11 -977 9 -986 -2z"/>
<path d="M40642 20485 c-4 -5 -7 -80 -6 -165 l0 -155 597 0 c456 0 598 3 601
12 8 19 1 301 -7 309 -11 11 -1178 11 -1185 -1z"/>
<path d="M2980 20225 l0 -255 1445 0 1445 0 0 255 0 255 -1445 0 -1445 0 0
-255z"/>
<path d="M6870 20225 l0 -255 1505 0 1505 0 0 255 0 255 -1505 0 -1505 0 0
-255z"/>
<path d="M10340 20225 l0 -255 1375 0 1375 0 0 255 0 255 -1375 0 -1375 0 0
-255z"/>
<path d="M14184 20463 c3 -10 48 -124 100 -253 l94 -235 408 0 408 0 88 230
c48 127 91 240 94 253 l6 22 -602 0 c-568 0 -601 -1 -596 -17z"/>
<path d="M19830 20225 l0 -255 2140 0 2140 0 0 255 0 255 -2140 0 -2140 0 0
-255z"/>
<path d="M24980 20225 l0 -255 1910 0 1910 0 0 255 0 255 -1910 0 -1910 0 0
-255z"/>
<path d="M16430 20215 l0 -255 1400 0 1400 0 0 255 0 255 -1400 0 -1400 0 0
-255z"/>
<path d="M31418 19876 c-2 -6 -4 -72 -3 -146 l0 -135 1743 -1 c958 0 1743 2
1743 5 3 16 5 267 2 277 -5 15 -3481 15 -3485 0z"/>
<path d="M35355 19876 c-2 -6 -3 -72 -2 -146 l2 -135 1418 -1 1417 -1 30 63
c28 57 80 203 80 223 0 13 -2941 10 -2945 -3z"/>
<path d="M38835 19880 c-2 -3 -4 -69 -4 -146 l0 -141 1421 0 1420 0 34 72 c37
82 76 203 69 214 -5 9 -2934 10 -2940 1z"/>
<path d="M2980 19250 l0 -250 1445 0 1445 0 0 250 0 250 -1445 0 -1445 0 0
-250z"/>
<path d="M6870 19250 l0 -250 1505 0 1505 0 0 250 0 250 -1505 0 -1505 0 0
-250z"/>
<path d="M10340 19250 l0 -250 1375 0 1375 0 0 250 0 250 -1375 0 -1375 0 0
-250z"/>
<path d="M14584 19482 c19 -60 204 -474 211 -474 9 -1 205 463 205 484 0 4
-95 8 -211 8 -196 0 -210 -1 -205 -18z"/>
<path d="M19830 19250 l0 -250 2140 0 2140 0 0 250 0 250 -2140 0 -2140 0 0
-250z"/>
<path d="M24980 19250 l0 -250 1910 0 1910 0 0 250 0 250 -1910 0 -1910 0 0
-250z"/>
<path d="M16430 19245 l0 -245 1400 0 1400 0 0 245 0 245 -1400 0 -1400 0 0
-245z"/>
<path d="M31419 19316 c-1 0 -2 -65 -3 -144 l-1 -142 1745 2 1745 3 1 130 c0
72 -1 135 -3 141 -3 9 -456 12 -1744 12 -956 0 -1740 -1 -1740 -2z"/>
<path d="M35356 19311 c-3 -4 -5 -68 -5 -144 l0 -138 1062 4 c584 1 1076 6
1092 10 93 22 205 65 275 106 74 43 208 147 209 163 1 9 -2628 8 -2633 -1z"/>
<path d="M38832 19174 l0 -145 1061 4 c584 1 1071 5 1082 9 11 3 34 9 50 13
106 24 221 77 318 147 41 28 127 105 127 112 0 3 -593 5 -1319 5 l-1319 0 0
-145z"/>
</g>
</svg>
