<?xml version="1.0" standalone="no"?>
<!DOCTYPE svg PUBLIC "-//W3C//DTD SVG 20010904//EN"
 "http://www.w3.org/TR/2001/REC-SVG-20010904/DTD/svg10.dtd">
<svg version="1.0" xmlns="http://www.w3.org/2000/svg"
 width="1012.000000pt" height="1012.000000pt" viewBox="0 0 1012.000000 1012.000000"
 preserveAspectRatio="xMidYMid meet">
<metadata>
Created by potrace 1.14, written by Peter Selinger 2001-2017
</metadata>
<g transform="translate(0.000000,1012.000000) scale(0.100000,-0.100000)"
fill="#000000" stroke="none">
<path d="M7856 9413 c-1 -1 -159 -3 -351 -5 -218 -2 -353 -7 -357 -13 -5 -7
-8 -7 -8 0 0 11 -156 12 -167 1 -3 -3 -14 -1 -24 4 -12 7 -20 7 -24 0 -3 -6
-14 -7 -23 -2 -15 7 -37 8 -52 3 -5 -2 -748 -10 -1212 -14 -159 -1 -288 -5
-288 -9 0 -4 -11 -3 -24 2 -13 5 -26 7 -28 4 -3 -2 -247 -7 -544 -10 -707 -7
-977 -11 -989 -14 -5 -1 -13 -2 -17 -1 -8 2 -136 3 -140 1 -2 0 -50 -3 -108
-5 -134 -5 -356 -22 -400 -31 -14 -3 -37 -7 -52 -10 -16 -2 -40 -6 -55 -8 -27
-5 -49 -9 -100 -21 -13 -3 -31 -7 -41 -9 -166 -38 -409 -137 -512 -210 -25
-18 -53 -35 -63 -39 -9 -3 -17 -11 -17 -17 0 -5 -6 -10 -14 -10 -8 0 -16 -3
-18 -7 -1 -5 -30 -30 -62 -58 -71 -59 -123 -111 -196 -195 -30 -34 -63 -71
-72 -81 -10 -11 -18 -23 -18 -29 0 -5 -4 -10 -8 -10 -13 0 -282 -387 -282
-406 0 -3 -13 -25 -29 -49 -16 -24 -32 -53 -36 -64 -3 -12 -11 -21 -16 -21 -5
0 -9 -5 -9 -11 0 -5 -18 -40 -41 -77 -22 -37 -54 -96 -71 -131 -36 -76 -34 7
-24 -831 4 -327 9 -779 11 -1005 2 -225 7 -644 10 -930 7 -702 14 -1392 20
-1910 2 -236 7 -695 10 -1020 11 -1054 13 -1166 26 -1219 17 -73 39 -115 82
-154 57 -52 103 -78 149 -85 10 -2 20 -5 22 -8 6 -6 757 -1 763 5 3 3 15 1 28
-4 13 -5 25 -6 29 -3 8 9 277 9 283 0 2 -4 10 -4 16 0 7 4 167 8 357 9 1338 9
1753 13 1757 17 2 3 17 2 31 -2 15 -4 39 -4 54 0 16 4 30 3 34 -2 3 -6 12 -6
21 0 9 5 29 5 45 1 15 -5 28 -6 28 -2 0 9 113 7 127 -1 6 -4 13 -4 17 0 3 4
178 8 389 9 1435 9 1928 14 1962 20 119 18 223 111 255 227 17 63 8 160 -20
220 -31 66 -102 132 -170 159 -54 21 -62 21 -565 19 -1019 -5 -1222 -8 -1235
-16 -7 -5 -11 -4 -8 1 4 5 -16 9 -43 9 -27 0 -49 -4 -49 -9 0 -4 -6 -3 -14 3
-10 9 -16 9 -21 1 -4 -7 -11 -8 -18 -2 -7 5 -21 8 -32 6 -18 -3 -64 -5 -105
-3 -16 0 -1216 -10 -1800 -15 -190 -2 -347 -5 -350 -6 -3 -1 -9 -1 -15 0 -8 2
-470 2 -470 0 0 -1 -165 -2 -367 -3 -243 -1 -364 1 -360 8 73 122 215 315 303
409 124 134 292 238 454 282 6 2 28 8 50 14 22 6 51 13 65 14 14 2 32 6 40 9
8 3 22 5 30 5 8 0 29 2 46 6 84 16 198 25 370 30 61 2 116 6 121 9 6 4 13 4
17 0 7 -7 51 -7 124 0 26 3 42 0 42 -7 0 -7 3 -7 8 -1 8 12 91 13 108 3 6 -4
14 -4 18 0 9 8 8 8 756 16 300 3 545 6 545 7 0 6 36 5 40 -2 3 -4 16 -4 29 1
13 5 26 7 28 5 5 -6 41 -6 363 -1 324 6 1145 17 1160 17 75 -2 91 -2 100 -1
34 7 115 3 115 -5 0 -6 3 -6 8 1 8 12 82 14 82 1 0 -4 6 -5 13 0 6 4 84 8 172
9 88 1 302 3 475 5 173 2 336 6 362 10 104 16 178 71 235 173 l28 51 -1 525
c-1 519 -6 1159 -29 4040 -7 866 -11 1960 -7 2048 7 149 -117 343 -240 377 -5
2 -9 4 -10 5 -9 9 -403 21 -412 13z m-1307 -654 c33 8 53 7 69 -2 6 -5 12 -4
12 1 0 5 15 7 33 5 17 -3 37 -4 42 -4 6 1 177 3 380 6 l370 5 -37 -33 c-20
-19 -71 -65 -113 -103 -43 -38 -90 -80 -105 -94 -55 -50 -107 -97 -210 -190
-58 -52 -110 -99 -116 -105 -6 -5 -46 -41 -89 -80 -43 -38 -97 -86 -119 -107
-23 -20 -68 -60 -101 -90 -33 -29 -89 -80 -125 -113 -61 -55 -171 -155 -294
-265 -28 -25 -66 -60 -84 -77 -19 -18 -36 -33 -38 -33 -1 0 -14 -10 -26 -22
-13 -13 -59 -54 -102 -93 -43 -38 -93 -83 -111 -100 -81 -74 -192 -173 -228
-205 -23 -19 -53 -46 -67 -60 -14 -14 -62 -56 -105 -95 -43 -38 -88 -79 -100
-90 -11 -11 -54 -49 -94 -85 -41 -36 -90 -80 -110 -99 -20 -18 -67 -61 -105
-95 -105 -93 -178 -158 -208 -187 -76 -74 -109 -93 -167 -95 -66 -3 -127 -9
-306 -29 -33 -3 -76 -8 -96 -10 -99 -10 -283 -39 -355 -55 -28 -6 -64 -13 -80
-15 -16 -2 -29 -4 -29 -5 0 -2 -16 -5 -58 -14 -101 -19 -331 -90 -472 -146
-114 -45 -391 -190 -406 -213 -3 -5 -10 -8 -14 -6 -4 1 -14 -3 -24 -10 -9 -6
-45 -30 -80 -53 -130 -84 -181 -161 -189 -282 -5 -90 20 -162 81 -226 52 -56
80 -74 143 -93 91 -26 208 -7 279 46 143 106 497 284 578 290 9 1 17 4 17 8 0
4 17 10 37 14 21 4 42 10 48 13 5 4 15 7 20 8 35 7 60 13 63 13 1 1 4 1 7 2 2
0 19 5 37 10 18 6 42 12 53 14 11 2 31 6 45 9 66 16 203 36 207 32 3 -3 13 -1
23 4 9 5 39 11 66 14 27 3 65 7 84 10 53 8 118 15 195 21 39 3 91 8 117 10 26
3 90 7 142 11 84 5 96 4 113 -13 31 -33 269 -286 303 -323 43 -47 138 -148
296 -316 72 -76 157 -168 190 -203 32 -35 77 -83 99 -106 22 -23 90 -95 150
-160 121 -129 113 -121 305 -325 74 -78 142 -150 150 -160 15 -17 214 -229
295 -315 22 -23 90 -95 150 -160 61 -65 130 -139 155 -165 25 -26 74 -78 110
-117 103 -111 271 -291 320 -343 25 -26 60 -64 79 -84 l33 -36 -28 0 c-16 1
-234 -1 -484 -4 -866 -12 -2092 -26 -2430 -30 -107 -1 -200 -5 -207 -9 -6 -4
-14 -4 -16 0 -6 10 -190 8 -206 -1 -6 -4 -11 -2 -11 4 0 6 -4 8 -10 5 -5 -3
-139 -8 -297 -11 -349 -6 -373 -7 -373 -14 0 -3 -28 -6 -63 -6 -84 -2 -140 -6
-151 -12 -5 -3 -29 -6 -55 -8 -51 -5 -96 -11 -96 -14 0 -2 -9 -4 -20 -5 -40
-6 -89 -16 -96 -21 -5 -3 -25 -7 -46 -10 -20 -2 -40 -9 -44 -15 -3 -6 -9 -10
-13 -9 -10 2 -68 -11 -96 -23 -14 -5 -34 -12 -45 -14 -29 -5 -285 -134 -285
-144 0 -4 -9 -10 -19 -14 -11 -3 -37 -19 -58 -36 -21 -17 -56 -45 -78 -62 -22
-18 -77 -69 -122 -114 l-83 -83 -1 158 c0 86 -2 283 -4 437 -1 154 -6 555 -9
890 -4 336 -9 799 -11 1030 -10 898 -26 2383 -29 2727 l-3 257 87 145 c91 152
241 380 285 431 14 17 42 50 63 75 35 42 135 143 164 165 49 38 121 85 165
108 55 29 193 80 193 71 0 -3 6 -2 13 3 6 4 17 8 22 10 6 1 21 4 35 8 55 12
97 18 132 19 21 1 38 4 38 8 0 4 8 6 18 6 9 0 40 2 67 6 28 3 106 8 175 11 69
3 137 7 153 9 15 2 27 -2 27 -8 0 -7 3 -8 8 -1 8 12 22 13 40 2 6 -5 12 -4 12
1 0 4 73 9 163 10 89 2 351 5 582 8 231 2 431 6 445 7 14 2 37 0 53 -4 15 -4
25 -5 23 -1 -4 6 144 8 169 2 6 -1 12 -1 15 0 7 3 322 8 878 14 255 2 466 7
469 10 3 3 13 2 21 -3 8 -5 27 -6 41 -2z m1332 -601 c0 -228 10 -1473 12
-1681 2 -186 1 -198 -15 -194 -10 3 -21 1 -24 -4 -3 -5 -11 -6 -17 -2 -17 10
-59 11 -79 1 -9 -4 -19 -4 -22 0 -6 10 -424 15 -1343 16 -398 1 -723 3 -723 6
0 3 35 37 77 75 42 39 84 77 93 85 9 8 36 33 61 55 25 22 87 78 139 125 113
103 119 108 210 190 40 36 88 79 105 95 18 17 48 43 66 59 34 30 234 211 255
231 6 5 37 33 69 60 31 28 74 66 94 85 36 34 182 166 224 203 18 15 121 108
204 184 13 12 55 49 93 83 38 34 80 71 93 83 65 59 181 164 201 182 90 80 191
172 200 182 6 7 14 12 19 13 4 0 7 -60 8 -132z m-1451 -2501 c0 -5 6 -5 13 0
16 10 107 10 107 0 0 -5 6 -5 13 0 17 10 107 10 107 -1 0 -5 6 -4 13 1 6 5 44
8 82 7 39 -1 248 -5 465 -8 217 -3 455 -6 528 -7 73 -1 135 -5 137 -9 3 -5 7
-309 10 -676 3 -368 7 -901 10 -1184 l4 -515 -57 61 c-31 33 -113 121 -182
194 -69 74 -161 172 -206 219 -45 47 -92 98 -105 112 -29 32 -231 248 -279
299 -19 20 -89 95 -155 165 -66 71 -136 145 -155 165 -30 31 -105 111 -289
309 -18 20 -68 72 -110 117 -71 75 -262 279 -341 363 -19 21 -92 98 -161 172
-69 74 -142 152 -162 174 l-37 40 148 5 c229 8 602 6 602 -3z"/>
</g>
</svg>
